<?xml version="1.0" encoding="UTF-8"?>
<!DOCTYPE svg PUBLIC "-//W3C//DTD SVG 1.1//EN" "http://www.w3.org/Graphics/SVG/1.1/DTD/svg11.dtd">
<svg xmlns="http://www.w3.org/2000/svg" version="1.1" width="160px" height="160px" style="shape-rendering:geometricPrecision; text-rendering:geometricPrecision; image-rendering:optimizeQuality; fill-rule:evenodd; clip-rule:evenodd" xmlns:xlink="http://www.w3.org/1999/xlink">
<g><path style="opacity:1" fill="#dee9f7" d="M 126.5,29.5 C 125.5,29.5 124.5,29.5 123.5,29.5C 126.101,26.3957 128.934,23.3957 132,20.5C 133.167,16.3333 131.667,14.8333 127.5,16C 125.297,18.3722 122.963,20.5389 120.5,22.5C 122.751,16.3626 126.918,14.0292 133,15.5C 133.814,17.9018 133.647,20.2351 132.5,22.5C 130.477,24.8528 128.477,27.1862 126.5,29.5 Z"/></g>
<g><path style="opacity:1" fill="#eeeee7" d="M 16.5,15.5 C 16.825,45.5736 16.4917,75.5736 15.5,105.5C 14.5416,105.953 13.7083,106.619 13,107.5C 12.5001,120.829 12.3334,134.163 12.5,147.5C 12.1741,103.671 12.1741,59.6706 12.5,15.5C 13.8333,15.5 15.1667,15.5 16.5,15.5 Z"/></g>
<g><path style="opacity:1" fill="#e1e2d6" d="M 16.5,15.5 C 41.1757,15.1669 65.8423,15.5002 90.5,16.5C 94.1667,20.8333 98.1667,24.8333 102.5,28.5C 103.726,29.3629 105.06,29.3629 106.5,28.5C 101.837,33.3308 97.3371,38.3308 93,43.5C 91.8228,47.4918 93.3228,49.1584 97.5,48.5C 94.6943,51.4069 93.6943,54.7402 94.5,58.5C 96.4134,57.627 98.2467,56.627 100,55.5C 100.186,52.9644 100.686,50.631 101.5,48.5C 101.232,50.099 101.566,51.4324 102.5,52.5C 102.869,54.4412 103.536,56.2745 104.5,58C 109.067,58.3459 113.4,59.5126 117.5,61.5C 118.416,61.4573 119.083,61.1239 119.5,60.5C 120.167,60.5 120.833,60.5 121.5,60.5C 120.666,61.7479 119.333,62.4146 117.5,62.5C 114.231,61.7235 111.065,60.7235 108,59.5C 107.832,89.0029 107.332,118.336 106.5,147.5C 106.5,133.5 106.5,119.5 106.5,105.5C 76.1667,105.5 45.8333,105.5 15.5,105.5C 16.4917,75.5736 16.825,45.5736 16.5,15.5 Z"/></g>
<g><path style="opacity:1" fill="#3d82d4" d="M 123.5,29.5 C 122.167,31.1667 120.833,32.8333 119.5,34.5C 116.633,34.6308 114.967,33.2974 114.5,30.5C 114.833,29.8333 115.167,29.1667 115.5,28.5C 117.89,27.1092 119.557,25.1092 120.5,22.5C 122.963,20.5389 125.297,18.3722 127.5,16C 131.667,14.8333 133.167,16.3333 132,20.5C 128.934,23.3957 126.101,26.3957 123.5,29.5 Z"/></g>
<g><path style="opacity:1" fill="#d5e4f6" d="M 120.5,22.5 C 119.557,25.1092 117.89,27.1092 115.5,28.5C 115.167,28.5 114.833,28.5 114.5,28.5C 116.215,26.1182 118.215,24.1182 120.5,22.5 Z"/></g>
<g><path style="opacity:1" fill="#515861" d="M 55.5,26.5 C 56.9953,26.4148 57.9953,27.0815 58.5,28.5C 57.16,29.6878 56.4934,31.1878 56.5,33C 57.7589,35.5271 58.7589,38.1938 59.5,41C 59.3451,44.9851 57.3451,47.1518 53.5,47.5C 53.9153,45.2532 54.5819,43.0865 55.5,41C 54.0961,38.3486 53.0961,35.5153 52.5,32.5C 52.6284,30.0452 53.6284,28.0452 55.5,26.5 Z"/></g>
<g><path style="opacity:1" fill="#f7c445" d="M 106.5,28.5 C 109.167,28.5 111.833,28.5 114.5,28.5C 114.833,28.5 115.167,28.5 115.5,28.5C 115.167,29.1667 114.833,29.8333 114.5,30.5C 112.5,31.8333 110.833,33.5 109.5,35.5C 108.094,35.9731 107.427,36.9731 107.5,38.5C 104.14,41.8604 100.806,45.1937 97.5,48.5C 93.3228,49.1584 91.8228,47.4918 93,43.5C 97.3371,38.3308 101.837,33.3308 106.5,28.5 Z"/></g>
<g><path style="opacity:1" fill="#4c545d" d="M 45.5,30.5 C 46.5,30.5 47.5,30.5 48.5,30.5C 48.2767,32.3417 47.9434,34.175 47.5,36C 49.0383,39.0212 49.5383,42.1878 49,45.5C 48.4115,47.8633 46.9115,48.8633 44.5,48.5C 45.9428,44.2058 45.6094,40.0392 43.5,36C 43.7579,33.9907 44.4245,32.1573 45.5,30.5 Z"/></g>
<g><path style="opacity:1" fill="#535a63" d="M 63.5,30.5 C 64.5,30.5 65.5,30.5 66.5,30.5C 66.2767,32.3417 65.9434,34.175 65.5,36C 67.8115,39.7171 67.9782,43.5504 66,47.5C 64.5064,48.7472 63.0064,48.7472 61.5,47.5C 62.84,46.3122 63.5066,44.8122 63.5,43C 60.9598,38.7715 60.9598,34.6048 63.5,30.5 Z"/></g>
<g><path style="opacity:1" fill="#5b9ccc" d="M 114.5,30.5 C 114.967,33.2974 116.633,34.6308 119.5,34.5C 119.5,35.1667 119.167,35.5 118.5,35.5C 117.061,37.3603 115.395,39.027 113.5,40.5C 113.631,37.6333 112.297,35.9666 109.5,35.5C 110.833,33.5 112.5,31.8333 114.5,30.5 Z"/></g>
<g><path style="opacity:1" fill="#fff4db" d="M 126.5,29.5 C 132.754,33.0819 138.754,37.0819 144.5,41.5C 142.297,41.3964 140.297,40.7298 138.5,39.5C 133.65,37.0903 129.65,33.757 126.5,29.5 Z"/></g>
<g><path style="opacity:1" fill="#859792" d="M 109.5,35.5 C 109.573,37.0269 108.906,38.0269 107.5,38.5C 107.427,36.9731 108.094,35.9731 109.5,35.5 Z"/></g>
<g><path style="opacity:1" fill="#fbbf34" d="M 123.5,29.5 C 124.5,29.5 125.5,29.5 126.5,29.5C 129.65,33.757 133.65,37.0903 138.5,39.5C 138.81,41.1436 139.81,42.1436 141.5,42.5C 135.313,44.2982 128.979,45.9649 122.5,47.5C 122.784,45.5853 122.451,43.9187 121.5,42.5C 118.047,41.0883 117.047,38.755 118.5,35.5C 119.167,35.5 119.5,35.1667 119.5,34.5C 120.833,32.8333 122.167,31.1667 123.5,29.5 Z"/></g>
<g><path style="opacity:1" fill="#407fcc" d="M 109.5,35.5 C 112.297,35.9666 113.631,37.6333 113.5,40.5C 112.5,41.8333 111.5,43.1667 110.5,44.5C 107.939,45.9177 105.272,46.9177 102.5,47.5C 102.5,48.1667 102.167,48.5 101.5,48.5C 100.686,50.631 100.186,52.9644 100,55.5C 98.2467,56.627 96.4134,57.627 94.5,58.5C 93.6943,54.7402 94.6943,51.4069 97.5,48.5C 100.806,45.1937 104.14,41.8604 107.5,38.5C 108.906,38.0269 109.573,37.0269 109.5,35.5 Z"/></g>
<g><path style="opacity:1" fill="#d0a12e" d="M 118.5,35.5 C 117.047,38.755 118.047,41.0883 121.5,42.5C 121.5,43.8333 121.5,45.1667 121.5,46.5C 117.878,47.4184 114.212,47.4184 110.5,46.5C 110.5,45.8333 110.5,45.1667 110.5,44.5C 111.5,43.1667 112.5,41.8333 113.5,40.5C 115.395,39.027 117.061,37.3603 118.5,35.5 Z"/></g>
<g><path style="opacity:1" fill="#f7b330" d="M 121.5,42.5 C 122.451,43.9187 122.784,45.5853 122.5,47.5C 128.979,45.9649 135.313,44.2982 141.5,42.5C 143.5,42.5 145.5,42.5 147.5,42.5C 147.5,48.1667 147.5,53.8333 147.5,59.5C 137.985,59.1731 128.652,59.5064 119.5,60.5C 119.083,61.1239 118.416,61.4573 117.5,61.5C 113.4,59.5126 109.067,58.3459 104.5,58C 103.536,56.2745 102.869,54.4412 102.5,52.5C 105.987,54.2929 107.487,53.2929 107,49.5C 106.005,48.9341 105.172,48.2674 104.5,47.5C 106.621,47.6747 108.621,47.3414 110.5,46.5C 114.212,47.4184 117.878,47.4184 121.5,46.5C 121.5,45.1667 121.5,43.8333 121.5,42.5 Z"/></g>
<g><path style="opacity:1" fill="#859389" d="M 110.5,44.5 C 110.5,45.1667 110.5,45.8333 110.5,46.5C 108.621,47.3414 106.621,47.6747 104.5,47.5C 103.833,47.5 103.167,47.5 102.5,47.5C 105.272,46.9177 107.939,45.9177 110.5,44.5 Z"/></g>
<g><path style="opacity:1" fill="#f6dea4" d="M 102.5,47.5 C 103.167,47.5 103.833,47.5 104.5,47.5C 105.172,48.2674 106.005,48.9341 107,49.5C 107.487,53.2929 105.987,54.2929 102.5,52.5C 101.566,51.4324 101.232,50.099 101.5,48.5C 102.167,48.5 102.5,48.1667 102.5,47.5 Z"/></g>
<g><path style="opacity:1" fill="#48505a" d="M 28.5,53.5 C 46.5,53.5 64.5,53.5 82.5,53.5C 82.5,55.1667 82.5,56.8333 82.5,58.5C 89.7248,58.2201 92.8914,61.5534 92,68.5C 91.0701,70.5524 89.5701,72.0524 87.5,73C 80.7514,73.871 75.418,77.0376 71.5,82.5C 75.4454,83.4909 79.4454,83.8242 83.5,83.5C 83.5,84.5 83.5,85.5 83.5,86.5C 81.4727,86.3379 79.4727,86.5045 77.5,87C 76.5,88.6667 75.5,90.3333 74.5,92C 61.8333,92.6667 49.1667,92.6667 36.5,92C 35.1387,90.4157 34.472,88.5824 34.5,86.5C 32.5,86.5 30.5,86.5 28.5,86.5C 28.5,85.5 28.5,84.5 28.5,83.5C 32.226,83.8226 35.8927,83.4892 39.5,82.5C 32.0878,74.2645 28.4211,64.5978 28.5,53.5 Z"/></g>
<g><path style="opacity:1" fill="#888d8d" d="M 31.5,57.5 C 47.3246,56.5036 63.3246,56.1703 79.5,56.5C 79.7678,58.099 79.4345,59.4324 78.5,60.5C 78.5,59.8333 78.5,59.1667 78.5,58.5C 63.0089,57.5037 47.3422,57.1704 31.5,57.5 Z"/></g>
<g><path style="opacity:1" fill="#deded1" d="M 31.5,57.5 C 47.3422,57.1704 63.0089,57.5037 78.5,58.5C 64.1667,58.5 49.8333,58.5 35.5,58.5C 36.0448,61.8131 36.5448,65.1464 37,68.5C 39.3232,72.9767 41.8232,77.3101 44.5,81.5C 41.7022,80.2937 39.5355,78.2937 38,75.5C 34.9364,69.8079 32.7697,63.8079 31.5,57.5 Z"/></g>
<g><path style="opacity:1" fill="#f8e48f" d="M 78.5,58.5 C 78.5,59.1667 78.5,59.8333 78.5,60.5C 77.2386,69.6952 72.9053,77.0285 65.5,82.5C 58.443,82.76 51.443,82.4267 44.5,81.5C 41.8232,77.3101 39.3232,72.9767 37,68.5C 36.5448,65.1464 36.0448,61.8131 35.5,58.5C 49.8333,58.5 64.1667,58.5 78.5,58.5 Z"/></g>
<g><path style="opacity:1" fill="#fdca7e" d="M 138.5,39.5 C 140.297,40.7298 142.297,41.3964 144.5,41.5C 146.167,41.5 147.833,41.5 149.5,41.5C 149.5,47.8333 149.5,54.1667 149.5,60.5C 140.167,60.5 130.833,60.5 121.5,60.5C 120.833,60.5 120.167,60.5 119.5,60.5C 128.652,59.5064 137.985,59.1731 147.5,59.5C 147.5,53.8333 147.5,48.1667 147.5,42.5C 145.5,42.5 143.5,42.5 141.5,42.5C 139.81,42.1436 138.81,41.1436 138.5,39.5 Z"/></g>
<g><path style="opacity:1" fill="#d5d6cc" d="M 81.5,62.5 C 87.3596,61.0738 89.3596,63.0738 87.5,68.5C 84.6066,69.7404 81.7733,71.0737 79,72.5C 79.8973,69.2842 80.7307,65.9509 81.5,62.5 Z"/></g>
<g><path style="opacity:1" fill="#b3ab7f" d="M 44.5,81.5 C 51.443,82.4267 58.443,82.76 65.5,82.5C 59.013,83.654 52.3464,83.8206 45.5,83C 44.944,82.6174 44.6107,82.1174 44.5,81.5 Z"/></g>
<g><path style="opacity:1" fill="#7a7383" d="M 38.5,87.5 C 50.0067,86.1757 61.6734,86.1757 73.5,87.5C 73.3764,88.1067 73.0431,88.44 72.5,88.5C 61.3456,87.5052 50.0123,87.1719 38.5,87.5 Z"/></g>
<g><path style="opacity:1" fill="#98889a" d="M 38.5,87.5 C 50.0123,87.1719 61.3456,87.5052 72.5,88.5C 67.0101,89.1661 61.3435,89.4995 55.5,89.5C 49.4585,89.4955 43.7918,88.8288 38.5,87.5 Z"/></g>
<g><path style="opacity:1" fill="#eac78c" d="M 15.5,105.5 C 45.8333,105.5 76.1667,105.5 106.5,105.5C 106.5,119.5 106.5,133.5 106.5,147.5C 106.167,147.5 105.833,147.5 105.5,147.5C 105.829,134.323 105.495,121.323 104.5,108.5C 104.389,107.883 104.056,107.383 103.5,107C 74.5,106.333 45.5,106.333 16.5,107C 16,107.5 15.5,108 15,108.5C 14.5001,121.496 14.3334,134.496 14.5,147.5C 13.8333,147.5 13.1667,147.5 12.5,147.5C 12.3334,134.163 12.5001,120.829 13,107.5C 13.7083,106.619 14.5416,105.953 15.5,105.5 Z"/></g>
<g><path style="opacity:1" fill="#e3a542" d="M 104.5,108.5 C 75.1648,108.333 45.8314,108.5 16.5,109C 15.5109,121.754 15.1776,134.587 15.5,147.5C 15.1667,147.5 14.8333,147.5 14.5,147.5C 14.3334,134.496 14.5001,121.496 15,108.5C 15.5,108 16,107.5 16.5,107C 45.5,106.333 74.5,106.333 103.5,107C 104.056,107.383 104.389,107.883 104.5,108.5 Z"/></g>
<g><path style="opacity:1" fill="#e59824" d="M 104.5,108.5 C 105.495,121.323 105.829,134.323 105.5,147.5C 104.5,147.5 103.5,147.5 102.5,147.5C 102.5,134.833 102.5,122.167 102.5,109.5C 74.1667,109.5 45.8333,109.5 17.5,109.5C 17.5,122.167 17.5,134.833 17.5,147.5C 16.8333,147.5 16.1667,147.5 15.5,147.5C 15.1776,134.587 15.5109,121.754 16.5,109C 45.8314,108.5 75.1648,108.333 104.5,108.5 Z"/></g>
<g><path style="opacity:1" fill="#e28907" d="M 102.5,147.5 C 74.1667,147.5 45.8333,147.5 17.5,147.5C 17.5,134.833 17.5,122.167 17.5,109.5C 45.8333,109.5 74.1667,109.5 102.5,109.5C 102.5,122.167 102.5,134.833 102.5,147.5 Z"/></g>
<g><path style="opacity:1" fill="#dd8620" d="M 91.5,114.5 C 87.8333,114.5 84.1667,114.5 80.5,114.5C 80.5,122.167 80.5,129.833 80.5,137.5C 81.5,137.5 82.5,137.5 83.5,137.5C 80.8797,137.991 78.5463,139.158 76.5,141C 62.1667,141.667 47.8333,141.667 33.5,141C 30.9746,140.576 28.9746,139.41 27.5,137.5C 31.4896,138.384 34.3229,137.051 36,133.5C 36.4995,127.175 36.6662,120.842 36.5,114.5C 35.1667,114.5 33.8333,114.5 32.5,114.5C 32.6662,120.842 32.4995,127.175 32,133.5C 28.4628,134.818 26.6294,133.485 26.5,129.5C 25.5,129.5 24.5,129.5 23.5,129.5C 23.448,131.903 23.7814,134.236 24.5,136.5C 23.5041,136.586 22.6708,136.252 22,135.5C 20.9654,132.351 21.6321,129.684 24,127.5C 22.9538,120.967 25.1205,115.967 30.5,112.5C 48.1667,111.167 65.8333,111.167 83.5,112.5C 86.3056,113.168 88.9723,113.834 91.5,114.5 Z"/></g>
<g><path style="opacity:1" fill="#120902" d="M 27.5,137.5 C 26.391,137.443 25.391,137.11 24.5,136.5C 23.7814,134.236 23.448,131.903 23.5,129.5C 24.5,129.5 25.5,129.5 26.5,129.5C 26.6294,133.485 28.4628,134.818 32,133.5C 32.4995,127.175 32.6662,120.842 32.5,114.5C 33.8333,114.5 35.1667,114.5 36.5,114.5C 36.6662,120.842 36.4995,127.175 36,133.5C 34.3229,137.051 31.4896,138.384 27.5,137.5 Z"/></g>
<g><path style="opacity:1" fill="#0f0802" d="M 55.5,114.5 C 57.4672,114.261 59.3005,114.594 61,115.5C 63.5985,122.462 66.0985,129.462 68.5,136.5C 67.1667,137.833 65.8333,137.833 64.5,136.5C 63.9264,134.941 63.2598,133.441 62.5,132C 59.5184,131.502 56.5184,131.335 53.5,131.5C 53.1667,133.5 52.8333,135.5 52.5,137.5C 51.1667,137.5 49.8333,137.5 48.5,137.5C 51.0316,129.904 53.3649,122.238 55.5,114.5 Z"/></g>
<g><path style="opacity:1" fill="#130b01" d="M 91.5,114.5 C 96.8245,115.33 98.6578,118.33 97,123.5C 96.1667,124.333 95.3333,125.167 94.5,126C 95.7014,126.903 96.5348,128.069 97,129.5C 97.2256,132.095 97.7256,134.595 98.5,137C 96.8876,137.72 95.3876,137.554 94,136.5C 93.7744,133.905 93.2744,131.405 92.5,129C 89.854,128.503 87.1873,128.336 84.5,128.5C 84.81,131.713 84.4767,134.713 83.5,137.5C 82.5,137.5 81.5,137.5 80.5,137.5C 80.5,129.833 80.5,122.167 80.5,114.5C 84.1667,114.5 87.8333,114.5 91.5,114.5 Z"/></g>
<g><path style="opacity:1" fill="#db8415" d="M 84.5,117.5 C 86.8568,117.337 89.1902,117.503 91.5,118C 94.1667,120 94.1667,122 91.5,124C 89.1902,124.497 86.8568,124.663 84.5,124.5C 84.5,122.167 84.5,119.833 84.5,117.5 Z"/></g>
<g><path style="opacity:1" fill="#cc7b1e" d="M 57.5,120.5 C 59.5669,122.318 60.9003,124.651 61.5,127.5C 59.604,128.466 57.604,128.799 55.5,128.5C 55.9628,125.779 56.6295,123.112 57.5,120.5 Z"/></g>
</svg>
