<?xml version="1.0" encoding="UTF-8"?>
<svg xmlns="http://www.w3.org/2000/svg" width="16px" height="16px" viewBox="0 0 16 16" version="1.1">
<g id="surface1">
<path style=" stroke:none;fill-rule:nonzero;fill:rgb(72.54902%,45.098039%,34.901961%);fill-opacity:1;" d="M 8.539062 3.757812 L 3.335938 8.957031 L 4.621094 10.242188 L 9.820312 5.042969 Z M 8.539062 3.757812 "/>
<path style=" stroke:none;fill-rule:nonzero;fill:rgb(34.509804%,50.588235%,70.196078%);fill-opacity:1;" d="M 0.9375 13.582031 L 0 12.644531 L 0 11.699219 L 4.527344 7.175781 L 6.40625 9.054688 L 1.878906 13.582031 Z M 0.9375 13.582031 "/>
<path style=" stroke:none;fill-rule:nonzero;fill:rgb(72.54902%,45.098039%,34.901961%);fill-opacity:1;" d="M 8.449219 3.847656 L 6.679688 5.617188 L 9.246094 5.617188 L 9.71875 5.144531 Z M 8.449219 3.847656 "/>
<path style=" stroke:none;fill-rule:nonzero;fill:rgb(35.686275%,33.333333%,33.333333%);fill-opacity:1;" d="M 8.320312 1.988281 L 8.359375 2.035156 C 8.34375 2.015625 8.332031 2 8.320312 1.988281 Z M 8.382812 2.066406 C 8.382812 2.0625 8.378906 2.058594 8.378906 2.058594 L 8.386719 2.070312 C 8.386719 2.070312 8.386719 2.066406 8.386719 2.066406 C 8.386719 2.066406 8.386719 2.066406 8.382812 2.066406 Z M 6.109375 0.367188 C 6.917969 0.6875 7.777344 1.441406 8.300781 1.964844 L 8.304688 1.964844 C 8.304688 1.964844 8.304688 1.96875 8.304688 1.96875 C 8.335938 2 8.363281 2.03125 8.382812 2.066406 C 8.386719 2.066406 8.386719 2.066406 8.386719 2.066406 C 8.394531 2.082031 8.40625 2.09375 8.417969 2.109375 L 8.386719 2.070312 C 8.617188 2.421875 8.507812 2.976562 8.023438 3.460938 L 7.828125 4.101562 L 9.515625 5.789062 L 10.175781 5.617188 L 10.785156 5.007812 C 11.089844 4.703125 11.621094 4.617188 12.105469 5.105469 C 12.375 5.375 12.238281 5.765625 12.292969 6.082031 C 12.308594 6.183594 12.347656 6.28125 12.425781 6.359375 L 13.613281 7.542969 C 13.78125 7.714844 14.054688 7.710938 14.222656 7.542969 L 15.875 5.894531 C 16.042969 5.726562 16.042969 5.453125 15.875 5.285156 L 14.6875 4.097656 C 14.609375 4.019531 14.515625 3.980469 14.410156 3.964844 C 14.09375 3.910156 13.703125 4.046875 13.433594 3.777344 C 13.113281 3.457031 13.429688 3.046875 13.171875 2.617188 C 13.140625 2.5625 13.09375 2.503906 13.039062 2.449219 C 13.039062 2.449219 11.671875 1.082031 10.742188 0.148438 C 9.554688 -1.035156 7.511719 -0.964844 6.246094 -0.46875 C 5.75 -0.351562 5.59375 0.160156 6.109375 0.367188 Z M 6.109375 0.367188 "/>
<path style=" stroke:none;fill-rule:nonzero;fill:rgb(41.568627%,41.960784%,41.960784%);fill-opacity:1;" d="M 14.410156 3.964844 L 12.292969 6.082031 C 12.308594 6.183594 12.347656 6.28125 12.425781 6.359375 L 13.613281 7.542969 C 13.78125 7.714844 14.054688 7.710938 14.222656 7.542969 L 15.875 5.894531 C 16.042969 5.726562 16.042969 5.453125 15.875 5.285156 L 14.6875 4.097656 C 14.609375 4.019531 14.515625 3.980469 14.410156 3.964844 Z M 14.410156 3.964844 "/>
<path style=" stroke:none;fill-rule:nonzero;fill:rgb(41.568627%,41.960784%,41.960784%);fill-opacity:1;" d="M 6.109375 0.367188 C 6.917969 0.6875 7.777344 1.441406 8.300781 1.964844 L 8.304688 1.964844 C 8.304688 1.964844 8.304688 1.96875 8.304688 1.96875 C 8.308594 1.972656 8.3125 1.976562 8.316406 1.984375 L 8.320312 1.988281 L 8.378906 2.058594 L 8.386719 2.070312 C 8.617188 2.421875 8.507812 2.976562 8.023438 3.460938 L 7.828125 4.101562 L 9.515625 5.789062 L 10.175781 5.617188 L 13.171875 2.617188 C 13.140625 2.5625 13.09375 2.503906 13.039062 2.449219 C 13.039062 2.449219 11.671875 1.082031 10.742188 0.148438 C 9.554688 -1.035156 7.511719 -0.964844 6.246094 -0.46875 C 5.75 -0.351562 5.59375 0.160156 6.109375 0.367188 Z M 6.109375 0.367188 "/>
<path style=" stroke:none;fill-rule:nonzero;fill:rgb(54.901961%,54.901961%,54.901961%);fill-opacity:1;" d="M 15.875 5.894531 L 14.222656 7.542969 C 14.054688 7.714844 13.78125 7.714844 13.613281 7.542969 L 15.875 5.28125 C 16.042969 5.453125 16.042969 5.726562 15.875 5.894531 Z M 15.875 5.894531 "/>
</g>
</svg>
